<svg width="19" height="20" viewBox="0 0 19 20" fill="none" xmlns="http://www.w3.org/2000/svg">
<path d="M6.35248 0.545447C4.44402 1.2433 2.79817 2.56784 1.65667 4.32451C0.515176 6.08119 -0.0617959 8.17741 0.0105047 10.3053C0.0828053 12.4331 0.800567 14.4805 2.05836 16.1466C3.31616 17.8127 5.04769 19.0097 6.99862 19.5619C8.58028 19.9921 10.2374 20.0109 11.8275 19.6169C13.268 19.2759 14.5998 18.5463 15.6924 17.4998C16.8296 16.3773 17.6551 14.9493 18.08 13.3693C18.5419 11.6512 18.6241 9.84436 18.3203 8.08753H9.43843V11.971H14.5822C14.4794 12.5904 14.2591 13.1816 13.9345 13.7091C13.6099 14.2367 13.1876 14.6898 12.693 15.0413C12.0649 15.4793 11.3569 15.774 10.6143 15.9064C9.86961 16.0524 9.10575 16.0524 8.36104 15.9064C7.60624 15.7419 6.89222 15.4136 6.26443 14.9422C5.2559 14.1897 4.49863 13.1207 4.10068 11.8877C3.69601 10.6315 3.69601 9.26973 4.10068 8.0136C4.38395 7.13311 4.85222 6.33143 5.47056 5.6684C6.17817 4.8957 7.07402 4.34338 8.05983 4.07202C9.04565 3.80066 10.0833 3.82076 11.059 4.1301C11.8212 4.37672 12.5182 4.80761 13.0944 5.38842C13.6744 4.78023 14.2534 4.17047 14.8314 3.55913C15.1299 3.2304 15.4552 2.91739 15.7491 2.58079C14.8696 1.71801 13.8371 1.04666 12.7109 0.605218C10.6601 -0.179678 8.41621 -0.200771 6.35248 0.545447Z" fill="white"/>
<path d="M6.35248 0.545447C8.41604 -0.201278 10.66 -0.18074 12.7109 0.603645C13.8373 1.04809 14.8693 1.72267 15.7476 2.58865C15.4492 2.92525 15.1343 3.23983 14.8299 3.567C14.2509 4.17624 13.6724 4.78338 13.0944 5.38842C12.5182 4.80761 11.8212 4.37672 11.059 4.1301C10.0836 3.81967 9.046 3.79842 8.05993 4.06866C7.07386 4.33891 6.17745 4.89022 5.46907 5.66211C4.85073 6.32514 4.38245 7.12682 4.09919 8.00731L1.00577 5.4828C2.11302 3.16836 4.03017 1.398 6.35248 0.545447Z" fill="#E33629"/>
<path d="M0.185034 7.98372C0.351302 7.11515 0.62734 6.27401 1.00577 5.4828L4.09919 8.0136C3.69451 9.26973 3.69451 10.6315 4.09919 11.8877C3.06855 12.7265 2.03741 13.5696 1.00577 14.4169C0.0584181 12.4292 -0.230507 10.1646 0.185034 7.98372Z" fill="#F8BD00"/>
<path d="M9.43843 8.08595H18.3203C18.6241 9.84278 18.5419 11.6496 18.08 13.3678C17.6551 14.9477 16.8296 16.3757 15.6924 17.4982C14.6941 16.6772 13.6913 15.8624 12.693 15.0413C13.188 14.6894 13.6104 14.2358 13.935 13.7077C14.2597 13.1796 14.4798 12.5878 14.5822 11.9679H9.43843C9.43694 10.675 9.43843 9.38046 9.43843 8.08595Z" fill="#587DBD"/>
<path d="M1.00428 14.4169C2.03591 13.578 3.06705 12.7349 4.0977 11.8877C4.49643 13.1211 5.25479 14.1902 6.26443 14.9422C6.89417 15.4114 7.60974 15.7371 8.36551 15.8986C9.11023 16.0445 9.87409 16.0445 10.6188 15.8986C11.3613 15.7661 12.0694 15.4714 12.6975 15.0335C13.6958 15.8545 14.6986 16.6693 15.6969 17.4904C14.6044 18.5375 13.2726 19.2675 11.832 19.6091C10.2419 20.0031 8.58476 19.9842 7.00309 19.554C5.75215 19.2019 4.58368 18.5813 3.57093 17.731C2.499 16.834 1.62349 15.7035 1.00428 14.4169Z" fill="#319F43"/>
</svg>
