<svg width="27" height="33" viewBox="0 0 27 33" fill="none" xmlns="http://www.w3.org/2000/svg">
<path d="M26.149 16.5C25.149 7 20.3287 0 13.149 0C5.96932 0 1.64902 7.5 0.149019 16.5C-0.850998 26 3.14902 33 13.149 33C23.149 33 27.149 26 26.149 16.5Z" fill="#FFCC4D"/>
<path d="M16.2872 12C14.8564 12 13.6209 12.8534 13 14.0982C12.3791 12.8534 11.1436 12 9.7128 12C7.6618 12 6 13.7518 6 15.9078C6 18.0638 7.2719 20.0401 8.9155 21.6635C10.5591 23.2869 13 24.8333 13 24.8333C13 24.8333 15.3618 23.3126 17.0845 21.6635C18.922 19.9053 20 18.0702 20 15.9078C20 13.7453 18.3382 12 16.2872 12Z" fill="white"/>
</svg>
