<svg width="108" height="33" viewBox="0 0 108 33" fill="none" xmlns="http://www.w3.org/2000/svg">
<path d="M26.149 16.5C25.149 7 20.3287 0 13.149 0C5.96932 0 1.64902 7.5 0.149019 16.5C-0.850998 26 3.14902 33 13.149 33C23.149 33 27.149 26 26.149 16.5Z" fill="#FFCC4D"/>
<path d="M16.2872 12C14.8564 12 13.6209 12.8534 13 14.0982C12.3791 12.8534 11.1436 12 9.7128 12C7.6618 12 6 13.7517 6 15.9078C6 18.0637 7.2719 20.0401 8.9155 21.6635C10.5591 23.2869 13 24.8333 13 24.8333C13 24.8333 15.3618 23.3126 17.0845 21.6635C18.922 19.9053 20 18.0702 20 15.9078C20 13.7453 18.3382 12 16.2872 12Z" fill="white"/>
<path d="M43.2 30.8C42.0267 30.8 40.8933 30.6 39.8 30.2C38.7333 29.8 37.9067 29.2267 37.32 28.48C37.1067 28.1867 37 27.8933 37 27.6C37 27.2533 37.1333 26.96 37.4 26.72C37.6933 26.4533 38.0133 26.32 38.36 26.32C38.5467 26.32 38.7333 26.36 38.92 26.44C39.1067 26.4933 39.2533 26.6 39.36 26.76C39.7867 27.2667 40.36 27.6667 41.08 27.96C41.8267 28.2533 42.6 28.4 43.4 28.4C44.3333 28.4 45.0933 28.1733 45.68 27.72C46.2933 27.2667 46.6 26.6667 46.6 25.92C46.6 25.0667 46.24 24.4667 45.52 24.12C44.8267 23.7467 44.0133 23.48 43.08 23.32C42.2267 23.16 41.36 22.9333 40.48 22.64C39.6 22.32 38.8667 21.8667 38.28 21.28C37.6933 20.6667 37.4 19.84 37.4 18.8C37.4 17.3867 37.9333 16.2667 39 15.44C40.0933 14.6133 41.5467 14.2 43.36 14.2C44.32 14.2 45.2 14.3467 46 14.64C46.8 14.9067 47.4667 15.28 48 15.76C48.32 16.0267 48.48 16.36 48.48 16.76C48.48 17.08 48.36 17.36 48.12 17.6C47.88 17.84 47.6 17.96 47.28 17.96C46.96 17.96 46.6533 17.8533 46.36 17.64C45.5067 16.9467 44.4533 16.6 43.2 16.6C41.0667 16.6 40 17.32 40 18.76C40 19.4533 40.32 19.9333 40.96 20.2C41.6267 20.44 42.52 20.6933 43.64 20.96C44.1733 21.0667 44.7467 21.2267 45.36 21.44C46 21.6267 46.6133 21.9067 47.2 22.28C47.7867 22.6267 48.2667 23.1067 48.64 23.72C49.0133 24.3067 49.2 25.0533 49.2 25.96C49.2 27.4 48.64 28.5733 47.52 29.48C46.4267 30.36 44.9867 30.8 43.2 30.8Z" fill="#222222"/>
<path d="M56.3044 30.8C55.2644 30.8 54.411 30.48 53.7444 29.84C53.0777 29.2 52.7444 28.24 52.7444 26.96V21.88C52.7444 21.6133 52.611 21.48 52.3444 21.48H51.6244C51.2777 21.48 50.9844 21.3733 50.7444 21.16C50.5044 20.92 50.3844 20.6267 50.3844 20.28C50.3844 19.9067 50.5044 19.6 50.7444 19.36C50.9844 19.12 51.2777 19 51.6244 19H52.3444C52.611 19 52.7444 18.8667 52.7444 18.6V15.24C52.7444 14.8667 52.8644 14.5733 53.1044 14.36C53.371 14.12 53.691 14 54.0644 14C54.4644 14 54.7844 14.12 55.0244 14.36C55.291 14.5733 55.4244 14.8667 55.4244 15.24V18.6C55.4244 18.8667 55.5577 19 55.8244 19H57.9844C58.3044 19 58.5844 19.12 58.8244 19.36C59.0644 19.6 59.1844 19.9067 59.1844 20.28C59.1844 20.6267 59.0644 20.92 58.8244 21.16C58.611 21.3733 58.3177 21.48 57.9444 21.48H55.8244C55.5577 21.48 55.4244 21.6133 55.4244 21.88V26.6C55.4244 27.72 55.8777 28.28 56.7844 28.28C57.051 28.28 57.331 28.24 57.6244 28.16C57.9177 28.08 58.1177 28.04 58.2244 28.04C58.5977 28.04 58.8777 28.16 59.0644 28.4C59.2777 28.64 59.3844 28.92 59.3844 29.24C59.3844 29.48 59.3177 29.72 59.1844 29.96C59.051 30.1733 58.8377 30.3333 58.5444 30.44C58.251 30.5467 57.8777 30.6267 57.4244 30.68C56.9977 30.76 56.6244 30.8 56.3044 30.8Z" fill="#222222"/>
<path d="M69.6738 19.92C69.6738 19.5467 69.7937 19.24 70.0337 19C70.3004 18.7333 70.6338 18.6 71.0338 18.6C71.4071 18.6 71.7271 18.7333 71.9938 19C72.2604 19.24 72.3937 19.5467 72.3937 19.92V25.56C72.3937 26.76 72.1271 27.7467 71.5938 28.52C71.0604 29.2933 70.3671 29.8667 69.5137 30.24C68.6604 30.6133 67.7537 30.8 66.7937 30.8C65.8337 30.8 64.9271 30.6133 64.0737 30.24C63.2204 29.8667 62.5271 29.2933 61.9937 28.52C61.4604 27.7467 61.1937 26.76 61.1937 25.56V19.92C61.1937 19.5467 61.3137 19.24 61.5537 19C61.8204 18.7333 62.1537 18.6 62.5537 18.6C62.9271 18.6 63.2471 18.7333 63.5137 19C63.7804 19.24 63.9137 19.5467 63.9137 19.92V25.56C63.9137 26.5467 64.2071 27.2533 64.7937 27.68C65.3804 28.1067 66.0471 28.32 66.7937 28.32C67.5671 28.32 68.2337 28.1067 68.7937 27.68C69.3804 27.2533 69.6738 26.5467 69.6738 25.56V19.92Z" fill="#222222"/>
<path d="M80.5381 30.8C79.3915 30.8 78.3648 30.5333 77.4581 30C76.5515 29.4667 75.8448 28.7333 75.3381 27.8C74.8315 26.84 74.5781 25.7733 74.5781 24.6C74.5781 23.4533 74.8315 22.4267 75.3381 21.52C75.8448 20.6133 76.5515 19.9067 77.4581 19.4C78.3648 18.8667 79.3915 18.6 80.5381 18.6C81.2848 18.6 81.9515 18.72 82.5381 18.96C83.1248 19.2 83.6315 19.5333 84.0581 19.96V14.36C84.0581 13.9067 84.1915 13.5733 84.4581 13.36C84.7515 13.12 85.0715 13 85.4181 13C85.7648 13 86.0715 13.12 86.3381 13.36C86.6315 13.5733 86.7781 13.9067 86.7781 14.36V29.56C86.7781 29.96 86.6315 30.2667 86.3381 30.48C86.0715 30.6933 85.7648 30.8 85.4181 30.8C85.0715 30.8 84.7515 30.6933 84.4581 30.48C84.1915 30.2667 84.0581 29.96 84.0581 29.56V29.4C83.6315 29.8267 83.1248 30.16 82.5381 30.4C81.9515 30.6667 81.2848 30.8 80.5381 30.8ZM80.7781 28.32C81.7915 28.32 82.5915 27.9867 83.1781 27.32C83.7648 26.6267 84.0581 25.72 84.0581 24.6C84.0581 23.5333 83.7648 22.68 83.1781 22.04C82.5915 21.4 81.7915 21.08 80.7781 21.08C79.7381 21.08 78.8981 21.4 78.2581 22.04C77.6181 22.68 77.2981 23.5333 77.2981 24.6C77.2981 25.72 77.6181 26.6267 78.2581 27.32C78.8981 27.9867 79.7381 28.32 80.7781 28.32Z" fill="#222222"/>
<path d="M91.1922 30.8C90.8455 30.8 90.5255 30.6933 90.2322 30.48C89.9655 30.2667 89.8322 29.96 89.8322 29.56V19.96C89.8322 19.5067 89.9655 19.1733 90.2322 18.96C90.5255 18.72 90.8455 18.6 91.1922 18.6C91.5388 18.6 91.8455 18.72 92.1122 18.96C92.4055 19.1733 92.5522 19.5067 92.5522 19.96V29.56C92.5522 29.96 92.4055 30.2667 92.1122 30.48C91.8455 30.6933 91.5388 30.8 91.1922 30.8ZM91.2322 16.4C90.7255 16.4 90.2855 16.24 89.9122 15.92C89.5655 15.5733 89.3922 15.16 89.3922 14.68C89.3922 14.2267 89.5655 13.84 89.9122 13.52C90.2855 13.1733 90.7255 13 91.2322 13C91.7122 13 92.1255 13.1733 92.4722 13.52C92.8188 13.84 92.9922 14.2267 92.9922 14.68C92.9922 15.16 92.8188 15.5733 92.4722 15.92C92.1255 16.24 91.7122 16.4 91.2322 16.4Z" fill="#222222"/>
<path d="M101.208 30.8C100.034 30.8 98.9678 30.5333 98.0078 30C97.0745 29.4667 96.3411 28.7333 95.8078 27.8C95.2745 26.84 95.0078 25.7733 95.0078 24.6C95.0078 23.4533 95.2745 22.4267 95.8078 21.52C96.3411 20.6133 97.0745 19.9067 98.0078 19.4C98.9678 18.8667 100.034 18.6 101.208 18.6C102.381 18.6 103.434 18.8667 104.368 19.4C105.301 19.9067 106.034 20.6133 106.568 21.52C107.128 22.4267 107.408 23.4533 107.408 24.6C107.408 25.7733 107.128 26.84 106.568 27.8C106.034 28.7333 105.301 29.4667 104.368 30C103.434 30.5333 102.381 30.8 101.208 30.8ZM101.208 28.32C102.248 28.32 103.088 27.9867 103.728 27.32C104.368 26.6267 104.688 25.72 104.688 24.6C104.688 23.5333 104.368 22.68 103.728 22.04C103.088 21.4 102.248 21.08 101.208 21.08C100.141 21.08 99.2878 21.4 98.6478 22.04C98.0345 22.68 97.7278 23.5333 97.7278 24.6C97.7278 25.72 98.0345 26.6267 98.6478 27.32C99.2878 27.9867 100.141 28.32 101.208 28.32Z" fill="#222222"/>
</svg>
