<svg width="109" height="33" viewBox="0 0 109 33" fill="none" xmlns="http://www.w3.org/2000/svg">
<path d="M26.149 16.5C25.149 7 20.3287 0 13.149 0C5.96932 0 1.64902 7.5 0.149019 16.5C-0.850998 26 3.14902 33 13.149 33C23.149 33 27.149 26 26.149 16.5Z" fill="#FFCC4D"/>
<path d="M16.2872 12C14.8564 12 13.6209 12.8534 13 14.0982C12.3791 12.8534 11.1436 12 9.7128 12C7.6618 12 6 13.7517 6 15.9078C6 18.0637 7.2719 20.0401 8.9155 21.6635C10.5591 23.2869 13 24.8333 13 24.8333C13 24.8333 15.3618 23.3126 17.0845 21.6635C18.922 19.9053 20 18.0702 20 15.9078C20 13.7453 18.3382 12 16.2872 12Z" fill="white"/>
<path d="M39 30C38.3333 30 37.8 29.8 37.4 29.4C37 29 36.8 28.4667 36.8 27.8V15.12C36.8 14.6667 36.9467 14.3333 37.24 14.12C37.56 13.9067 37.8933 13.8 38.24 13.8C38.5867 13.8 38.8933 13.9067 39.16 14.12C39.4533 14.3333 39.6 14.6667 39.6 15.12V26.48C39.6 26.88 39.68 27.16 39.84 27.32C40 27.4533 40.2667 27.52 40.64 27.52H44.76C45.1867 27.52 45.4933 27.6533 45.68 27.92C45.8933 28.1867 46 28.4667 46 28.76C46 29.08 45.8933 29.3733 45.68 29.64C45.4933 29.88 45.1867 30 44.76 30H39Z" fill="#222222"/>
<path d="M50.1875 30.4C49.8408 30.4 49.5208 30.2933 49.2275 30.08C48.9608 29.8667 48.8275 29.56 48.8275 29.16V19.56C48.8275 19.1067 48.9608 18.7733 49.2275 18.56C49.5208 18.32 49.8408 18.2 50.1875 18.2C50.5342 18.2 50.8408 18.32 51.1075 18.56C51.4008 18.7733 51.5475 19.1067 51.5475 19.56V29.16C51.5475 29.56 51.4008 29.8667 51.1075 30.08C50.8408 30.2933 50.5342 30.4 50.1875 30.4ZM50.2275 16C49.7208 16 49.2808 15.84 48.9075 15.52C48.5608 15.1733 48.3875 14.76 48.3875 14.28C48.3875 13.8267 48.5608 13.44 48.9075 13.12C49.2808 12.7733 49.7208 12.6 50.2275 12.6C50.7075 12.6 51.1208 12.7733 51.4675 13.12C51.8142 13.44 51.9875 13.8267 51.9875 14.28C51.9875 14.76 51.8142 15.1733 51.4675 15.52C51.1208 15.84 50.7075 16 50.2275 16Z" fill="#222222"/>
<path d="M56.1631 30.4C55.8165 30.4 55.4965 30.2933 55.2031 30.08C54.9365 29.8667 54.8031 29.56 54.8031 29.16V13.96C54.8031 13.5067 54.9365 13.1733 55.2031 12.96C55.4965 12.72 55.8165 12.6 56.1631 12.6C56.5098 12.6 56.8165 12.72 57.0831 12.96C57.3765 13.1733 57.5231 13.5067 57.5231 13.96V21.76C57.5231 22.0267 57.5631 22.16 57.6431 22.16C57.7231 22.16 57.8298 22.1067 57.9631 22L62.9231 18.44C63.2165 18.28 63.4831 18.2 63.7231 18.2C64.0965 18.2 64.4031 18.3333 64.6431 18.6C64.8831 18.84 65.0031 19.1067 65.0031 19.4C65.0031 19.8533 64.7898 20.2133 64.3631 20.48L60.2831 23.04C60.0431 23.2 59.9231 23.36 59.9231 23.52C59.9231 23.68 60.0165 23.8533 60.2031 24.04L64.5631 28.16C64.8565 28.5067 65.0031 28.8267 65.0031 29.12C65.0031 29.4667 64.8698 29.76 64.6031 30C64.3365 30.2667 64.0298 30.4 63.6831 30.4C63.3365 30.4 63.0165 30.2533 62.7231 29.96L58.0431 25.32C57.8565 25.1333 57.7365 25.04 57.6831 25.04C57.5765 25.04 57.5231 25.2 57.5231 25.52V29.16C57.5231 29.56 57.3765 29.8667 57.0831 30.08C56.8165 30.2933 56.5098 30.4 56.1631 30.4Z" fill="#222222"/>
<path d="M72.5506 30.4C70.5506 30.4 68.9906 29.8267 67.8706 28.68C66.7506 27.5333 66.1906 25.9867 66.1906 24.04C66.1906 22.3333 66.7506 20.9333 67.8706 19.84C69.0173 18.7467 70.484 18.2 72.2706 18.2C74.004 18.2 75.3906 18.7067 76.4306 19.72C77.4706 20.7067 77.9906 21.9333 77.9906 23.4C77.9906 23.9867 77.8306 24.4267 77.5106 24.72C77.2173 25.0133 76.8306 25.16 76.3506 25.16H69.3906C69.124 25.16 69.0306 25.3067 69.1106 25.6C69.324 26.3467 69.7506 26.9333 70.3906 27.36C71.0573 27.76 71.804 27.96 72.6306 27.96C73.244 27.96 73.8306 27.88 74.3906 27.72C74.9773 27.56 75.484 27.32 75.9106 27C76.044 26.8933 76.2173 26.84 76.4306 26.84C76.724 26.84 76.9906 26.9733 77.2306 27.24C77.4706 27.48 77.5906 27.7733 77.5906 28.12C77.5906 28.28 77.564 28.44 77.5106 28.6C77.4573 28.76 77.3373 28.92 77.1506 29.08C76.4573 29.5867 75.7106 29.9333 74.9106 30.12C74.1373 30.3067 73.3506 30.4 72.5506 30.4ZM74.8706 23.08C75.0306 23.08 75.1106 23 75.1106 22.84C75.1106 22.2267 74.8306 21.6933 74.2706 21.24C73.7373 20.7867 73.0706 20.56 72.2706 20.56C71.5773 20.56 70.9106 20.7467 70.2706 21.12C69.6573 21.4933 69.284 21.9867 69.1506 22.6C69.1506 22.6 69.1506 22.6133 69.1506 22.64C69.124 22.7467 69.1106 22.84 69.1106 22.92C69.1373 23 69.2573 23.04 69.4706 23.04L74.8706 23.08Z" fill="#222222"/>
<path d="M90.1969 30.4C89.8502 30.4 89.5302 30.28 89.2369 30.04C88.9435 29.8267 88.7969 29.5067 88.7969 29.08V15.12C88.7969 14.6667 88.9435 14.3333 89.2369 14.12C89.5302 13.9067 89.8502 13.8 90.1969 13.8C90.5702 13.8 90.8902 13.9067 91.1569 14.12C91.4502 14.3333 91.5969 14.6667 91.5969 15.12V29.08C91.5969 29.5067 91.4502 29.8267 91.1569 30.04C90.8902 30.28 90.5702 30.4 90.1969 30.4Z" fill="#222222"/>
<path d="M99.7137 30.4C98.6737 30.4 97.8204 30.08 97.1537 29.44C96.4871 28.8 96.1537 27.84 96.1537 26.56V21.48C96.1537 21.2133 96.0204 21.08 95.7537 21.08H95.0337C94.6871 21.08 94.3937 20.9733 94.1537 20.76C93.9137 20.52 93.7937 20.2267 93.7937 19.88C93.7937 19.5067 93.9137 19.2 94.1537 18.96C94.3937 18.72 94.6871 18.6 95.0337 18.6H95.7537C96.0204 18.6 96.1537 18.4667 96.1537 18.2V14.84C96.1537 14.4667 96.2738 14.1733 96.5137 13.96C96.7804 13.72 97.1004 13.6 97.4737 13.6C97.8737 13.6 98.1937 13.72 98.4337 13.96C98.7004 14.1733 98.8337 14.4667 98.8337 14.84V18.2C98.8337 18.4667 98.9671 18.6 99.2337 18.6H101.394C101.714 18.6 101.994 18.72 102.234 18.96C102.474 19.2 102.594 19.5067 102.594 19.88C102.594 20.2267 102.474 20.52 102.234 20.76C102.02 20.9733 101.727 21.08 101.354 21.08H99.2337C98.9671 21.08 98.8337 21.2133 98.8337 21.48V26.2C98.8337 27.32 99.2871 27.88 100.194 27.88C100.46 27.88 100.74 27.84 101.034 27.76C101.327 27.68 101.527 27.64 101.634 27.64C102.007 27.64 102.287 27.76 102.474 28C102.687 28.24 102.794 28.52 102.794 28.84C102.794 29.08 102.727 29.32 102.594 29.56C102.46 29.7733 102.247 29.9333 101.954 30.04C101.66 30.1467 101.287 30.2267 100.834 30.28C100.407 30.36 100.034 30.4 99.7137 30.4Z" fill="#222222"/>
<path d="M107.243 25.28C106.976 25.28 106.736 25.1867 106.523 25C106.336 24.7867 106.23 24.5067 106.203 24.16L105.723 14.92C105.696 14.4133 105.843 14.04 106.163 13.8C106.483 13.5333 106.843 13.4 107.243 13.4C107.616 13.4 107.963 13.5333 108.283 13.8C108.603 14.04 108.75 14.4133 108.723 14.92L108.323 24.16C108.296 24.5067 108.176 24.7867 107.963 25C107.776 25.1867 107.536 25.28 107.243 25.28ZM107.243 30.6C106.736 30.6 106.296 30.4267 105.923 30.08C105.576 29.76 105.403 29.3733 105.403 28.92C105.403 28.44 105.576 28.04 105.923 27.72C106.296 27.3733 106.736 27.2 107.243 27.2C107.723 27.2 108.136 27.3733 108.483 27.72C108.83 28.04 109.003 28.44 109.003 28.92C109.003 29.3733 108.83 29.76 108.483 30.08C108.136 30.4267 107.723 30.6 107.243 30.6Z" fill="#222222"/>
</svg>
