<svg width="73" height="18" viewBox="0 0 73 18" fill="none" xmlns="http://www.w3.org/2000/svg">
<path d="M2.2 17.4C1.53333 17.4 0.999998 17.2 0.599998 16.8C0.199998 16.4 0 15.8667 0 15.2V2.52C0 2.06667 0.146665 1.73333 0.439999 1.52C0.759999 1.30667 1.09333 1.2 1.44 1.2C1.78667 1.2 2.09333 1.30667 2.36 1.52C2.65333 1.73333 2.8 2.06667 2.8 2.52V13.88C2.8 14.28 2.88 14.56 3.04 14.72C3.2 14.8533 3.46667 14.92 3.84 14.92H7.96C8.38667 14.92 8.69333 15.0533 8.88 15.32C9.09333 15.5867 9.2 15.8667 9.2 16.16C9.2 16.48 9.09333 16.7733 8.88 17.04C8.69333 17.28 8.38667 17.4 7.96 17.4H2.2Z" fill="#222222"/>
<path d="M13.3875 17.8C13.0408 17.8 12.7208 17.6933 12.4275 17.48C12.1608 17.2667 12.0275 16.96 12.0275 16.56V6.96C12.0275 6.50667 12.1608 6.17333 12.4275 5.96C12.7208 5.72 13.0408 5.6 13.3875 5.6C13.7342 5.6 14.0408 5.72 14.3075 5.96C14.6008 6.17333 14.7475 6.50667 14.7475 6.96V16.56C14.7475 16.96 14.6008 17.2667 14.3075 17.48C14.0408 17.6933 13.7342 17.8 13.3875 17.8ZM13.4275 3.4C12.9208 3.4 12.4808 3.24 12.1075 2.92C11.7608 2.57333 11.5875 2.16 11.5875 1.68C11.5875 1.22667 11.7608 0.84 12.1075 0.52C12.4808 0.173333 12.9208 0 13.4275 0C13.9075 0 14.3208 0.173333 14.6675 0.52C15.0142 0.84 15.1875 1.22667 15.1875 1.68C15.1875 2.16 15.0142 2.57333 14.6675 2.92C14.3208 3.24 13.9075 3.4 13.4275 3.4Z" fill="#222222"/>
<path d="M19.3631 17.8C19.0165 17.8 18.6965 17.6933 18.4031 17.48C18.1365 17.2667 18.0031 16.96 18.0031 16.56V1.36C18.0031 0.906668 18.1365 0.573334 18.4031 0.360001C18.6965 0.120001 19.0165 0 19.3631 0C19.7098 0 20.0165 0.120001 20.2831 0.360001C20.5765 0.573334 20.7231 0.906668 20.7231 1.36V9.16C20.7231 9.42667 20.7631 9.56 20.8431 9.56C20.9231 9.56 21.0298 9.50667 21.1631 9.4L26.1231 5.84C26.4165 5.68 26.6831 5.6 26.9231 5.6C27.2965 5.6 27.6031 5.73333 27.8431 6C28.0831 6.24 28.2031 6.50667 28.2031 6.8C28.2031 7.25333 27.9898 7.61333 27.5631 7.88L23.4831 10.44C23.2431 10.6 23.1231 10.76 23.1231 10.92C23.1231 11.08 23.2165 11.2533 23.4031 11.44L27.7631 15.56C28.0565 15.9067 28.2031 16.2267 28.2031 16.52C28.2031 16.8667 28.0698 17.16 27.8031 17.4C27.5365 17.6667 27.2298 17.8 26.8831 17.8C26.5365 17.8 26.2165 17.6533 25.9231 17.36L21.2431 12.72C21.0565 12.5333 20.9365 12.44 20.8831 12.44C20.7765 12.44 20.7231 12.6 20.7231 12.92V16.56C20.7231 16.96 20.5765 17.2667 20.2831 17.48C20.0165 17.6933 19.7098 17.8 19.3631 17.8Z" fill="#222222"/>
<path d="M35.7506 17.8C33.7506 17.8 32.1906 17.2267 31.0706 16.08C29.9506 14.9333 29.3906 13.3867 29.3906 11.44C29.3906 9.73334 29.9506 8.33333 31.0706 7.24C32.2173 6.14667 33.684 5.6 35.4706 5.6C37.204 5.6 38.5906 6.10667 39.6306 7.12C40.6706 8.10667 41.1906 9.33333 41.1906 10.8C41.1906 11.3867 41.0306 11.8267 40.7106 12.12C40.4173 12.4133 40.0306 12.56 39.5506 12.56H32.5906C32.324 12.56 32.2306 12.7067 32.3106 13C32.524 13.7467 32.9506 14.3333 33.5906 14.76C34.2573 15.16 35.004 15.36 35.8306 15.36C36.444 15.36 37.0306 15.28 37.5906 15.12C38.1773 14.96 38.684 14.72 39.1106 14.4C39.244 14.2933 39.4173 14.24 39.6306 14.24C39.924 14.24 40.1906 14.3733 40.4306 14.64C40.6706 14.88 40.7906 15.1733 40.7906 15.52C40.7906 15.68 40.764 15.84 40.7106 16C40.6573 16.16 40.5373 16.32 40.3506 16.48C39.6573 16.9867 38.9106 17.3333 38.1106 17.52C37.3373 17.7067 36.5506 17.8 35.7506 17.8ZM38.0706 10.48C38.2306 10.48 38.3106 10.4 38.3106 10.24C38.3106 9.62667 38.0306 9.09333 37.4706 8.64C36.9373 8.18667 36.2706 7.96 35.4706 7.96C34.7773 7.96 34.1106 8.14667 33.4706 8.52C32.8573 8.89333 32.484 9.38667 32.3506 10C32.3506 10 32.3506 10.0133 32.3506 10.04C32.324 10.1467 32.3106 10.24 32.3106 10.32C32.3373 10.4 32.4573 10.44 32.6706 10.44L38.0706 10.48Z" fill="#222222"/>
<path d="M53.3969 17.8C53.0502 17.8 52.7302 17.68 52.4369 17.44C52.1435 17.2267 51.9969 16.9067 51.9969 16.48V2.52C51.9969 2.06667 52.1435 1.73333 52.4369 1.52C52.7302 1.30667 53.0502 1.2 53.3969 1.2C53.7702 1.2 54.0902 1.30667 54.3569 1.52C54.6502 1.73333 54.7969 2.06667 54.7969 2.52V16.48C54.7969 16.9067 54.6502 17.2267 54.3569 17.44C54.0902 17.68 53.7702 17.8 53.3969 17.8Z" fill="#222222"/>
<path d="M62.9137 17.8C61.8737 17.8 61.0204 17.48 60.3537 16.84C59.6871 16.2 59.3537 15.24 59.3537 13.96V8.88C59.3537 8.61333 59.2204 8.48 58.9537 8.48H58.2337C57.8871 8.48 57.5937 8.37333 57.3537 8.16C57.1137 7.92 56.9937 7.62667 56.9937 7.28C56.9937 6.90667 57.1137 6.6 57.3537 6.36C57.5937 6.12 57.8871 6 58.2337 6H58.9537C59.2204 6 59.3537 5.86667 59.3537 5.6V2.24C59.3537 1.86667 59.4737 1.57333 59.7137 1.36C59.9804 1.12 60.3004 1 60.6737 1C61.0737 1 61.3937 1.12 61.6337 1.36C61.9004 1.57333 62.0337 1.86667 62.0337 2.24V5.6C62.0337 5.86667 62.1671 6 62.4338 6H64.5938C64.9138 6 65.1937 6.12 65.4337 6.36C65.6737 6.6 65.7937 6.90667 65.7937 7.28C65.7937 7.62667 65.6737 7.92 65.4337 8.16C65.2204 8.37333 64.9271 8.48 64.5537 8.48H62.4338C62.1671 8.48 62.0337 8.61333 62.0337 8.88V13.6C62.0337 14.72 62.4871 15.28 63.3937 15.28C63.6604 15.28 63.9404 15.24 64.2337 15.16C64.5271 15.08 64.7271 15.04 64.8337 15.04C65.2071 15.04 65.4871 15.16 65.6738 15.4C65.8871 15.64 65.9937 15.92 65.9937 16.24C65.9937 16.48 65.9271 16.72 65.7937 16.96C65.6604 17.1733 65.4471 17.3333 65.1537 17.44C64.8604 17.5467 64.4871 17.6267 64.0338 17.68C63.6071 17.76 63.2337 17.8 62.9137 17.8Z" fill="#222222"/>
<path d="M70.4431 12.68C70.1764 12.68 69.9364 12.5867 69.7231 12.4C69.5364 12.1867 69.4298 11.9067 69.4031 11.56L68.9231 2.32C68.8965 1.81333 69.0431 1.44 69.3631 1.2C69.6831 0.933333 70.0431 0.8 70.4431 0.8C70.8164 0.8 71.1631 0.933333 71.4831 1.2C71.8031 1.44 71.9498 1.81333 71.9231 2.32L71.5231 11.56C71.4965 11.9067 71.3764 12.1867 71.1631 12.4C70.9764 12.5867 70.7364 12.68 70.4431 12.68ZM70.4431 18C69.9364 18 69.4965 17.8267 69.1231 17.48C68.7765 17.16 68.6031 16.7733 68.6031 16.32C68.6031 15.84 68.7765 15.44 69.1231 15.12C69.4965 14.7733 69.9364 14.6 70.4431 14.6C70.9231 14.6 71.3365 14.7733 71.6831 15.12C72.0298 15.44 72.2031 15.84 72.2031 16.32C72.2031 16.7733 72.0298 17.16 71.6831 17.48C71.3365 17.8267 70.9231 18 70.4431 18Z" fill="#222222"/>
</svg>
